HIERARCHY
ROOT Hips
{
    OFFSET 0.0 0.0 0.0
    CHANNELS 6 Xposition Yposition Zposition Zrotation Xrotation Yrotation
    JOINT LeftHipJoint
    {
        OFFSET 0.1 0.0 0.0
        CHANNELS 3 Zrotation Xrotation Yrotation
        JOINT LeftUpLeg
        {
            OFFSET 121.99839920018258 0.0 0.0
            CHANNELS 3 Zrotation Xrotation Yrotation
            JOINT LeftLeg
            {
                OFFSET 0.0 0.0 -401.1463819634854
                CHANNELS 3 Zrotation Xrotation Yrotation
                JOINT LeftFoot
                {
                    OFFSET 0.0 0.0 -394.80794091537257
                    CHANNELS 3 Zrotation Xrotation Yrotation
                    End Site
                    {
                        OFFSET 0.0 -0.1 0.0
                    }
                }
            }
        }
    }
    JOINT LowerBack
    {
        OFFSET 0.0 0.0 0.1
        CHANNELS 3 Zrotation Xrotation Yrotation
        JOINT Spine
        {
            OFFSET 0.0 0.0 216.35676577790576
            CHANNELS 3 Zrotation Xrotation Yrotation
            JOINT Spine1
            {
                OFFSET 0.0 0.0 251.69685108950574
                CHANNELS 3 Zrotation Xrotation Yrotation
                JOINT LeftShoulder
                {
                    OFFSET 0.1 0.0 0.0
                    CHANNELS 3 Zrotation Xrotation Yrotation
                    JOINT LeftArm
                    {
                        OFFSET 140.8860449437605 0.0 0.0
                        CHANNELS 3 Zrotation Xrotation Yrotation
                        JOINT LeftForeArm
                        {
                            OFFSET 256.3453941229544 0.0 0.0
                            CHANNELS 3 Zrotation Xrotation Yrotation
                            JOINT LeftHand
                            {
                                OFFSET 245.42286986567376 0.0 0.0
                                CHANNELS 3 Zrotation Xrotation Yrotation
                                End Site
                                {
                                    OFFSET 0.1 0.0 0.0
                                }
                            }
                        }
                    }
                }
                JOINT Neck
                {
                    OFFSET 0.0 0.0 0.1
                    CHANNELS 3 Zrotation Xrotation Yrotation
                    JOINT Neck1
                    {
                        OFFSET 0.0 0.0 107.97798761843426
                        CHANNELS 3 Zrotation Xrotation Yrotation
                        End Site
                        {
                            OFFSET 0.0 0.0 119.79377737908158
                        }
                    }
                }
                JOINT RightShoulder
                {
                    OFFSET -0.1 0.0 0.0
                    CHANNELS 3 Zrotation Xrotation Yrotation
                    JOINT RightArm
                    {
                        OFFSET -140.8860449437605 0.0 0.0
                        CHANNELS 3 Zrotation Xrotation Yrotation
                        JOINT RightForeArm
                        {
                            OFFSET -256.3453941229544 0.0 0.0
                            CHANNELS 3 Zrotation Xrotation Yrotation
                            JOINT RightHand
                            {
                                OFFSET -245.42286986567376 0.0 0.0
                                CHANNELS 3 Zrotation Xrotation Yrotation
                                End Site
                                {
                                    OFFSET -0.1 0.0 0.0
                                }
                            }
                        }
                    }
                }
            }
        }
    }
    JOINT RightHipJoint
    {
        OFFSET -0.1 0.0 0.0
        CHANNELS 3 Zrotation Xrotation Yrotation
        JOINT RightUpLeg
        {
            OFFSET -121.99839920018258 0.0 0.0
            CHANNELS 3 Zrotation Xrotation Yrotation
            JOINT RightLeg
            {
                OFFSET 0.0 0.0 -401.1463819634854
                CHANNELS 3 Zrotation Xrotation Yrotation
                JOINT RightFoot
                {
                    OFFSET 0.0 0.0 -394.80794091537257
                    CHANNELS 3 Zrotation Xrotation Yrotation
                    End Site
                    {
                        OFFSET 0.0 -0.1 0.0
                    }
                }
            }
        }
    }
}
MOTION
Frames: 11
Frame Time: 0.03333333333333333
0.0 0.0 792.2409661238238 23.321309703843042 -2.754223790682804 2.6472419982972912 0.0 0.0 0.0 0.1544616832823581 -12.65514803950667 2.68895510584315 1.1297034156728505 29.593559996693166 -2.953781153805624 0.0 0.0 0.0 0.0 0.0 0.0 -0.008336452185185847 0.7005753369364535 -1.4727320315887056 -0.07340683970317546 -3.2302501855742994e-16 -2.0692840905922804e-19 0.0 0.0 0.0 -39.39854283615071 11.96153955294088 81.54700886120996 -22.749845483758495 1.568238288713928e-15 -7.795202318152712e-15 3.1805546814635168e-15 -5.517382872562698e-32 -1.987846675914698e-15 0.0 0.0 0.0 0.517867886411903 -4.754811047582021 0.7458259453326694 0.0 0.0 0.0 18.94892476502758 10.809129459467144 -75.15060231186636 37.77451193520423 -8.077746068165516e-15 -3.959475105676568e-15 6.361109362927033e-15 6.361109362927033e-15 -3.531125038440127e-31 0.0 0.0 0.0 0.12008694343148177 -10.094983665157091 -1.4619535300965454 -1.0486933641054197 25.96457131120246 -0.24424755762727496 3.4483642953516864e-34 -9.939233379573489e-17 3.9756933518293955e-16
0.0 0.0 792.2409661238238 23.405532092805426 -2.7036139767473393 2.6758262267931316 0.0 0.0 9.93923337957349e-17 0.15108351638621012 -12.855939736242776 2.6985662527629595 1.1616212780727528 29.843511788744983 -3.042752905601808 0.0 0.0 0.0 0.0 0.0 9.93923337957349e-17 -0.008084558092310736 0.7061719025698976 -1.4762043190056011 -0.07811319688673261 1.4908846605521193e-16 1.0162858944665291e-19 0.0 0.0 0.0 -39.04345248726633 12.158260355625584 81.82762094824571 -22.613393929825897 5.067977248506724e-15 -1.0138930907976315e-15 0.0 0.0 2.286023677301903e-15 0.0 0.0 0.0 0.3911603031445478 -4.932250203954784 0.6454413865119866 0.0 0.0 0.0 18.558019220003207 11.131602023549004 -74.99121947622919 39.1701003078922 2.2906207975618315e-14 -1.152566533842568e-14 -8.827812596100317e-32 6.3611093629270335e-15 1.5902773407317584e-15 0.0 0.0 9.93923337957349e-17 0.1168896446349181 -10.214006581326037 -1.4169064448681816 -1.0226548468982786 26.156049172541923 -0.4413494364996586 -5.517382872562698e-33 1.5902773407317584e-15 3.975693351829396e-16
0.0 0.0 792.2409661238238 23.495590515754447 -2.6610716357641357 2.7420579646185534 0.0 0.0 0.0 0.14428857520793853 -12.997277523186524 2.624412505884592 1.1436852475426857 29.911811216148298 -3.0701102414244374 0.0 0.0 -3.975693351829396e-16 0.0 0.0 0.0 -0.007252789084167745 0.6712818121118734 -1.5283401925693265 -0.04569101514194173 2.4846099941833846e-16 4.979523954052772e-17 0.0 0.0 0.0 -39.118276745829995 12.220897275734321 81.89740889548149 -22.575199138422466 5.372588837578137e-15 -1.879280808303497e-14 0.0 0.0 2.4848083448933726e-15 0.0 0.0 0.0 0.37783492155790954 -4.966343949651858 0.5236951952401924 0.0 0.0 0.0 18.29352426675076 11.184209472058503 -74.72074999709581 40.272596631283506 1.0351976997168416e-14 9.754749298966412e-15 0.0 0.0 -1.5902773407317584e-15 0.0 0.0 0.0 0.11122400869830751 -10.303354897564434 -1.4368861826210264 -1.01989086740285 26.2849650516967 -0.5343792485683839 0.0 0.0 3.975693351829396e-16
0.0 0.0 792.2409661238238 23.522012787147723 -2.609928570035107 2.8966202637074887 0.0 0.0 9.93923337957349e-17 0.11249415990955748 -13.068466436026146 2.488399113438065 1.1483850885199638 29.916489017941338 -3.1086060198589363 0.0 0.0 7.951386703658792e-16 0.0 0.0 9.93923337957349e-17 -0.005197720948547735 0.622034048506903 -1.7027579416610117 -0.06351056610837137 -5.467679251809308e-16 1.9848166058358014e-16 0.0 0.0 0.0 -39.401442335192066 12.018434935968429 81.91308336879766 -22.39537238842114 -7.0279574190198525e-15 -5.444125517963938e-15 3.1805546814635168e-15 -2.2069531490250793e-32 -7.951386703658792e-16 0.0 0.0 0.0 0.378304462925363 -4.969401954997083 0.42252760765646513 0.0 0.0 0.0 18.397311092884426 11.20695530822863 -74.37323733791047 41.301161938332335 -1.6735517407884765e-14 9.706276119925049e-15 6.3611093629270335e-15 6.3611093629270335e-15 2.385416011097637e-15 0.0 0.0 9.93923337957349e-17 0.08643488051018926 -10.380634286304394 -1.5429851710743645 -1.0039435606024583 26.33108710722432 -0.6339131285741489 -3.4483642953516864e-34 -9.939233379573489e-17 -3.9756933518293955e-16
0.0 0.0 792.2409661238238 23.55036688740518 -2.6091679685973546 3.0385504639563146 0.0 0.0 0.0 0.09040622719577988 -13.083802701724885 2.3415958553538947 1.1227120685130132 29.9723526640635 -3.0975399587909913 0.0 0.0 -7.951386703658792e-16 0.0 0.0 0.0 -0.003934754413997956 0.5880296516680772 -1.8194554995070482 -0.09015703761149309 6.958243199917647e-16 -9.884491173620194e-17 0.0 0.0 0.0 -39.6494702364683 12.047958352337918 81.96499102741474 -22.230988443368165 -4.473005135910878e-15 1.4517638734302133e-14 0.0 0.0 2.3854160110976376e-15 0.0 0.0 0.0 0.34413780497440744 -5.026782598159869 0.2676881789145517 0.0 0.0 0.0 18.33210788341509 11.318980828164841 -74.00371036104698 42.274331972006955 9.483517829705526e-16 2.009322652455091e-14 0.0 0.0 2.3854160110976376e-15 0.0 0.0 0.0 0.06882697470536897 -10.351911507226246 -1.6710706757036278 -1.020165414549755 26.34929767124614 -0.6627899303705402 0.0 0.0 -3.975693351829396e-16
0.0 0.0 792.2409661238238 23.60536961496391 -2.4967723074546644 3.1888804054007847 0.0 0.0 -9.93923337957349e-17 0.07802051825500259 -13.431499775017047 2.1665187123217593 1.0649258130994699 30.135445697894927 -3.091369443975301 0.0 0.0 3.975693351829396e-16 0.0 0.0 -9.93923337957349e-17 -0.0031381910920505523 0.5591292986682238 -1.9137666021589776 -0.10803982227512281 1.2414665243066664e-16 9.950942661251442e-17 0.0 0.0 0.0 -39.666409820417705 11.96699137261588 81.96439919853987 -22.070181355129456 -1.1573800970425444e-14 -7.117781858799468e-15 0.0 0.0 1.6896696745274934e-15 0.0 0.0 0.0 0.27683725661185865 -5.123168633989001 0.1228822654655336 0.0 0.0 0.0 18.394869280018185 11.373774468131424 -73.66122013380351 43.45054451850624 5.9092758955907476e-15 -2.3546062764097423e-15 0.0 0.0 1.987846675914698e-15 0.0 0.0 -9.93923337957349e-17 0.05879397436112898 -10.553161193440213 -1.8272535209307055 -1.0697864360197782 26.418230862498216 -0.7123936826019406 0.0 0.0 3.9756933518293955e-16
0.0 0.0 792.2409661238238 23.577099707075064 -2.384669485616424 3.349423327824288 0.0 0.0 0.0 0.06079609180337797 -13.73663883846616 1.9647319899688125 0.9993262913771161 30.27296001818744 -3.099844301291936 0.0 0.0 0.0 0.0 0.0 0.0 -0.00241180626672681 0.56641981570131 -1.9487070241921003 -0.11786419396494638 1.9868233156686344e-16 9.959674296867784e-17 0.0 0.0 4.969616689786745e-17 -39.99262178019797 11.792407684331602 81.71431018371487 -22.05051872792614 1.2210548358391862e-15 1.0364039431769886e-14 -3.1805546814635168e-15 -6.344990303447103e-32 2.2860236773019026e-15 0.0 0.0 4.969616689786745e-17 0.19230730843810212 -5.298089860760227 -0.11059964039537262 0.0 0.0 4.969616689786745e-17 18.412595476276408 11.056606391244522 -73.17804191213082 44.718268134185685 -4.672948347685627e-15 5.361267960917421e-15 0.0 0.0 0.0 0.0 0.0 0.0 0.04568864737102878 -10.845174517180327 -2.1107293939975973 -1.182361190521977 26.625977233513254 -0.5344006682669589 0.0 0.0 0.0
0.0 0.0 792.2409661238238 23.617987681079775 -2.460831135589266 3.559402327906288 0.0 0.0 -9.93923337957349e-17 0.044882220812012714 -13.767093884982753 1.6576513891829496 0.8653409992245207 30.450095448096896 -3.0209472683270087 0.0 0.0 7.951386703658792e-16 0.0 0.0 -9.93923337957349e-17 -0.0018249727833424374 0.5855585840942186 -2.0558538090074876 -0.10428587936157119 3.727210973864029e-16 3.3920088406796135e-19 0.0 0.0 -4.969616689786745e-17 -40.35456389076038 11.628456964506205 81.48572563539928 -22.17205979878947 -1.7451815052931242e-15 -7.634275048056037e-15 0.0 0.0 9.93923337957349e-17 0.0 0.0 -4.969616689786745e-17 0.046918928658993 -5.344413673061072 -0.3423759885169212 0.0 0.0 -4.969616689786745e-17 18.341868667409983 10.47512171847857 -72.55972925023428 46.1134797959181 7.098608223256989e-15 4.352030579002478e-16 0.0 0.0 -1.5902773407317582e-15 0.0 0.0 -9.93923337957349e-17 0.03288432057105431 -10.748931404300517 -2.485997973385721 -1.3328436993812183 26.547393952705093 -0.33391255185735386 0.0 9.93923337957349e-17 0.0
0.0 0.0 792.2409661238238 23.606712124555525 -2.5738796797544197 3.69827963382182 0.0 0.0 -1.9878466759146977e-16 0.026974936098703127 -13.608518271990743 1.3858362665741517 0.7512007772828945 30.52830007815104 -2.786859255472259 0.0 0.0 0.0 0.0 0.0 -1.9878466759146977e-16 -0.001076376996028329 0.5765880397391402 -2.1094541046924453 -0.07294643806079329 1.0936318049553718e-15 -4.962655878912241e-16 0.0 0.0 0.0 -40.28928343113464 11.216242698459121 80.96341426519957 -22.442856900566582 4.667099737212225e-15 -7.180435824921417e-15 0.0 0.0 1.3914926731402886e-15 0.0 0.0 0.0 -0.1605431386892328 -5.2365021326717365 -0.6053535194644737 0.0 0.0 0.0 17.84432635558933 9.550836595543664 -71.51430905929783 48.79468640503656 2.6275338349093745e-15 5.7930802060323994e-15 -6.361109362927035e-15 4.4139062980501586e-32 -7.951386703658794e-16 0.0 0.0 -1.9878466759146977e-16 0.018806252731133555 -10.470877326352527 -2.6910821749603957 -1.388107501641154 26.368535963939134 -0.2489109808071815 3.1805546814635168e-15 0.0 0.0
0.0 0.0 792.2409661238238 23.660635411855537 -2.5094596515469334 3.8400747220543594 0.0 0.0 -9.93923337957349e-17 0.014704430107238643 -13.76663017910346 1.1509142281679667 0.6493129014459259 30.744934372892864 -2.6314470567062798 -3.1805546814635168e-15 2.2069531490250793e-32 -7.951386703658792e-16 0.0 0.0 -9.93923337957349e-17 -0.00048012779222769583 0.49455077676871845 -2.1713769212014333 0.10939945797062756 -8.943408187296193e-16 1.9963857700822984e-16 0.0 0.0 0.0 -39.77185387183485 10.70358367149299 80.2058010157612 -22.916058826184287 5.960345991962457e-15 -1.3395437558882177e-14 0.0 0.0 -2.0375428428125655e-15 0.0 0.0 0.0 -0.48718491306260825 -5.1901975892567 -0.8049230554234129 0.0 0.0 0.0 17.268996592251657 7.712102602636967 -70.30356939394449 50.40382718472244 -1.7266840123925507e-14 8.125862605216623e-15 0.0 0.0 1.3914926731402886e-15 0.0 0.0 -9.93923337957349e-17 0.009420946591496539 -10.563662961138649 -2.9058756980483653 -1.4778489260135457 26.50649430647399 -0.2093009326780894 0.0 0.0 -3.975693351829396e-16
0.0 0.0 792.2409661238238 23.5379278961314 -2.506700135537654 3.8797662963675315 0.0 0.0 1.987846675914698e-16 0.007603237376546687 -13.911423481829784 1.0835086170263313 0.6338867069705804 31.015395733017986 -2.564012067342691 -3.1805546814635168e-15 -1.5902773407317584e-15 -1.1927080055488188e-15 0.0 0.0 1.987846675914698e-16 -0.00019638861170827104 0.42705679897233223 -2.196443548197525 0.26423834354065273 -7.449821415682514e-16 2.0050306429201991e-16 -3.1805546814635168e-15 3.975693351829396e-16 1.1034765745125397e-32 -38.463667606378294 10.690286965149875 79.9745306827464 -23.70344287498049 -7.613600446345572e-15 5.308157713822189e-15 0.0 0.0 1.6772456328030265e-15 -3.1805546814635168e-15 3.975693351829396e-16 1.1034765745125397e-32 -0.7787095193766476 -5.207655341824002 -1.0156671142782847 -3.1805546814635168e-15 3.975693351829396e-16 1.1034765745125397e-32 16.40257099866912 6.53336665761772 -69.34442546062968 52.74277801672627 -1.1350187035039732e-14 -8.572736780352343e-15 0.0 0.0 -2.3854160110976376e-15 0.0 0.0 1.987846675914698e-16 0.003990292600774968 -10.61921734506245 -2.956984847702152 -1.4978117954292647 26.6490905994075 -0.2685884373931986 0.0 0.0 0.0
